<svg xmlns="http://www.w3.org/2000/svg" xmlns:xlink="http://www.w3.org/1999/xlink" width="116.98" height="59.4" viewBox="0 0 116.98 59.4"><defs><style>.cls-1{fill:none;}.cls-2{isolation:isolate;}.cls-3{mix-blend-mode:multiply;opacity:0.91;}.cls-4{fill:#040107;}.cls-5{clip-path:url(#clip-path);}.cls-6{fill:#662d91;}.cls-7{fill:#652d90;}.cls-8{fill:#642c90;}.cls-9{fill:#632c8f;}.cls-10{fill:#622c8f;}.cls-11{fill:#612b8e;}.cls-12{fill:#602b8d;}.cls-13{fill:#5f2b8d;}.cls-14{fill:#5e2a8c;}.cls-15{fill:#5d2a8b;}.cls-16{fill:#5c2a8b;}.cls-17{fill:#5b298a;}.cls-18{fill:#5a298a;}.cls-19{fill:#592989;}.cls-20{fill:#582888;}.cls-21{fill:#562888;}.cls-22{fill:#552787;}.cls-23{fill:#542786;}.cls-24{fill:#532786;}.cls-25{fill:#522685;}.cls-26{fill:#512685;}.cls-27{fill:#502684;}.cls-28{fill:#4f2583;}.cls-29{fill:#4e2583;}.cls-30{fill:#4d2582;}.cls-31{fill:#4c2482;}.cls-32{fill:#4b2481;}.cls-33{fill:#4a2480;}.cls-34{fill:#492380;}.cls-35{fill:#48237f;}.cls-36{fill:#47237e;}.cls-37{fill:#46227e;}.cls-38{fill:#45227d;}.cls-39{fill:#44227d;}.cls-40{fill:#43217c;}.cls-41{fill:#42217b;}.cls-42{fill:#41217b;}.cls-43{fill:#40207a;}.cls-44{fill:#3f207a;}.cls-45{fill:#3e2079;}.cls-46{fill:#3d1f78;}.cls-47{fill:#3c1f78;}.cls-48{fill:#3b1f77;}.cls-49{fill:#3a1e76;}.cls-50{fill:#391e76;}.cls-51{fill:#381e75;}.cls-52{fill:#371d75;}.cls-53{fill:#361d74;}.cls-54{fill:#351d73;}.cls-55{fill:#341c73;}.cls-56{fill:#331c72;}.cls-57{fill:#321c72;}.cls-58{fill:#311b71;}.cls-59{fill:#301b70;}.cls-60{fill:#2f1b70;}.cls-61{fill:#2e1a6f;}.cls-62{fill:#2d1a6f;}.cls-63{fill:#2c1a6e;}.cls-64{fill:#2b196d;}.cls-65{fill:#2a196d;}.cls-66{fill:#29196c;}.cls-67{fill:#28186c;}.cls-68{fill:#27186b;}.cls-69{fill:#26186a;}.cls-70{fill:#25176a;}.cls-71{fill:#241769;}.cls-72{fill:#231769;}.cls-73{fill:#221668;}.cls-74{fill:#211667;}.cls-75{fill:#201667;}.cls-76{fill:#1f1566;}.cls-77{fill:#1e1566;}.cls-78{fill:#1d1565;}.cls-79{fill:#1c1465;}.cls-80{fill:#1b1464;}.cls-81{fill:#1c1564;}.cls-82{fill:#1d1664;}.cls-83{fill:#1e1764;}.cls-84{fill:#1f1864;}.cls-85{fill:#201964;}.cls-86{fill:#211a64;}.cls-87{fill:#221b64;}.cls-88{fill:#231c64;}.cls-89{fill:#241e64;}.cls-90{fill:#251f64;}.cls-91{fill:#262064;}.cls-92{fill:#272164;}.cls-93{fill:#282264;}.cls-94{fill:#292364;}.cls-95{fill:#292464;}.cls-96{fill:#2a2564;}.cls-97{fill:#2b2664;}.cls-98{fill:#2c2764;}.cls-99{fill:#2d2864;}.cls-100{fill:#2e2965;}.cls-101{fill:#2f2a65;}.cls-102{fill:#302b65;}.cls-103{fill:#312c65;}.cls-104{fill:#322d65;}.cls-105{fill:#332e65;}.cls-106{fill:#342f65;}.cls-107{fill:#353065;}.cls-108{fill:#363165;}.cls-109{fill:#373265;}.cls-110{fill:#383465;}.cls-111{fill:#393565;}.cls-112{fill:#3a3665;}.cls-113{fill:#3b3765;}.cls-114{fill:#3c3865;}.cls-115{fill:#3d3965;}.cls-116{fill:#3d3a65;}.cls-117{fill:#3e3b65;}.cls-118{fill:#3f3c65;}.cls-119{fill:#403d65;}.cls-120{fill:#413e65;}.cls-121{fill:#423f65;}.cls-122{fill:#434065;}.cls-123{fill:#444165;}.cls-124{fill:#454265;}.cls-125{fill:#464365;}.cls-126{fill:#474465;}.cls-127{fill:#484565;}.cls-128{fill:#494665;}.cls-129{fill:#4a4765;}.cls-130{fill:#4b4865;}.cls-131{fill:#4c4965;}.cls-132{fill:#4c4a65;}.cls-133{fill:#4d4b65;}.cls-134{fill:#4e4c65;}.cls-135{fill:#4f4d65;}.cls-136{fill:#504e65;}.cls-137{fill:#514f65;}.cls-138{fill:#525065;}.cls-139{fill:#535165;}.cls-140{fill:#545266;}.cls-141{fill:#555366;}.cls-142{fill:#565466;}.cls-143{fill:#565566;}.cls-144{fill:#575666;}.cls-145{fill:#585766;}.cls-146{fill:#595866;}.cls-147{fill:#5a5966;}.cls-148{fill:#5b5a66;}.cls-149{fill:#5c5b66;}.cls-150{fill:#5d5c66;}.cls-151{fill:#5e5d66;}.cls-152{fill:#5f5e66;}.cls-153{fill:#5f5f66;}.cls-154{fill:#606066;}.cls-155{fill:#616166;}.cls-156{fill:#626266;}.cls-157{fill:#636266;}.cls-158{fill:#646366;}.cls-159{fill:#646466;}.cls-160{fill:#656566;}.cls-161{fill:#666;}.cls-162{fill:#676666;}.cls-163{fill:#686667;}.cls-164{fill:#696667;}.cls-165{fill:#6a6768;}.cls-166{fill:#6b6768;}.cls-167{fill:#6c6769;}.cls-168{fill:#6d6769;}.cls-169{fill:#6e676a;}.cls-170{fill:#6f676a;}.cls-171{fill:#70676b;}.cls-172{fill:#71676b;}.cls-173{fill:#72686c;}.cls-174{fill:#73686c;}.cls-175{fill:#74686d;}.cls-176{fill:#75686d;}.cls-177{fill:#76686e;}.cls-178{fill:#77686e;}.cls-179{fill:#78686e;}.cls-180{fill:#79686f;}.cls-181{fill:#7a696f;}.cls-182{fill:#7b6970;}.cls-183{fill:#7c6970;}.cls-184{fill:#7d6971;}.cls-185{fill:#7e6971;}.cls-186{fill:#7f6972;}.cls-187{fill:#806972;}.cls-188{fill:#816973;}.cls-189{fill:#826a73;}.cls-190{fill:#836a74;}.cls-191{fill:#846a74;}.cls-192{fill:#856a75;}.cls-193{fill:#866a75;}.cls-194{fill:#876a75;}.cls-195{fill:#886a76;}.cls-196{fill:#896b76;}.cls-197{fill:#8a6b77;}.cls-198{fill:#8b6b77;}.cls-199{fill:#8c6b78;}.cls-200{fill:#8d6b78;}.cls-201{fill:#8e6b79;}.cls-202{fill:#8f6b79;}.cls-203{fill:#906b7a;}.cls-204{fill:#916c7a;}.cls-205{fill:#926c7b;}.cls-206{fill:#936c7b;}.cls-207{fill:#946c7c;}.cls-208{fill:#956c7c;}.cls-209{fill:#966c7d;}.cls-210{fill:#976c7d;}.cls-211{fill:#986c7d;}.cls-212{fill:#996d7e;}.cls-213{fill:#9a6d7e;}.cls-214{fill:#9b6d7f;}.cls-215{fill:#9c6d7f;}.cls-216{fill:#9d6d80;}.cls-217{fill:#9e6d80;}.cls-218{fill:#9f6d81;}.cls-219{fill:#a06d81;}.cls-220{fill:#a16e82;}.cls-221{fill:#a26e82;}.cls-222{fill:#a36e83;}.cls-223{fill:#a46e83;}.cls-224{fill:#a56e84;}.cls-225{fill:#a66e84;}.cls-226{fill:#a76e85;}.cls-227{fill:#a86f85;}.cls-228{fill:#a96f85;}.cls-229{fill:#aa6f86;}.cls-230{fill:#ab6f86;}.cls-231{fill:#ac6f87;}.cls-232{fill:#ad6f87;}.cls-233{fill:#ae6f88;}.cls-234{fill:#af6f88;}.cls-235{fill:#b17089;}.cls-236{fill:#b27089;}.cls-237{fill:#b3708a;}.cls-238{fill:#b4708a;}.cls-239{fill:#b5708b;}.cls-240{fill:#b6708b;}.cls-241{fill:#b7708c;}.cls-242{fill:#b8708c;}.cls-243{fill:#b9718c;}.cls-244{fill:#ba718d;}.cls-245{fill:#bb718d;}.cls-246{fill:#bc718e;}.cls-247{fill:#bd718e;}.cls-248{fill:#be718f;}.cls-249{fill:#bf718f;}.cls-250{fill:#c07290;}.cls-251{fill:#c17290;}.cls-252{fill:#c27291;}.cls-253{fill:#c37291;}.cls-254{fill:#c47292;}.cls-255{fill:#c57292;}.cls-256{fill:#c67293;}.cls-257{fill:#c77293;}.cls-258{fill:#c87394;}.cls-259{fill:#c97394;}.cls-260{fill:#ca7394;}.cls-261{fill:#cb7395;}.cls-262{fill:#cc7395;}.cls-263{fill:#cd7396;}.cls-264{fill:#ce7396;}.cls-265{fill:#cf7397;}.cls-266{fill:#d07497;}.cls-267{fill:#d17498;}.cls-268{fill:#d27498;}.cls-269{fill:#d37499;}.cls-270{fill:#d47499;}.cls-271{fill:#d5749a;}.cls-272{fill:#d6749a;}.cls-273{fill:#d7749b;}.cls-274{fill:#d8759b;}.cls-275{fill:#d9759c;}.cls-276{fill:#da759c;}.cls-277{fill:#db759c;}.cls-278{fill:#dc759d;}.cls-279{fill:#dd759d;}.cls-280{fill:#de759e;}.cls-281{fill:#df769e;}.cls-282{fill:#e0769f;}.cls-283{fill:#e1769f;}.cls-284{fill:#e276a0;}.cls-285{fill:#e376a0;}.cls-286{fill:#e476a1;}.cls-287{fill:#e576a1;}.cls-288{fill:#e676a2;}.cls-289{fill:#e777a2;}.cls-290{fill:#e877a3;}.cls-291{fill:#e977a3;}.cls-292{fill:#ea77a3;}.cls-293{fill:#eb77a4;}.cls-294{fill:#ec77a4;}.cls-295{fill:#ed77a5;}.cls-296{fill:#ee77a5;}.cls-297{fill:#ef78a6;}.cls-298{fill:#f078a6;}.cls-299{fill:#f178a7;}.cls-300{fill:#f278a7;}.cls-301{fill:#f378a8;}.cls-302{fill:#f478a8;}.cls-303{fill:#f578a9;}.cls-304{fill:#f678a9;}.cls-305{fill:#f779aa;}.cls-306{fill:#f879aa;}.cls-307{fill:#f979ab;}.cls-308{fill:#fa79ab;}.cls-309{fill:#fb7aab;}.cls-310{fill:#fd7aac;}.cls-311{fill:#fe7bac;}.cls-312{fill:#ff7bac;}.cls-313{opacity:0.56;}</style><clipPath id="clip-path"><path class="cls-1" d="M105.56,29.34c0-2.09-9,3.51-11,1.65-1.47-1.34,5.5-14.16,3.14-15.32-1.89-.92-5-.92-7.35-1.7-2.06-.68-6.33,6.26-8.71,5.71-2.15-.5-5.45,7.57-7.83,7.19-2.2-.34-2.53-12.77-4.89-13s-4.06-9.8-6.42-9.92S57.48,0,55.13,0s-4.59,13.88-6.85,14-5-3.38-7.2-3.16S34.56.44,32.35.79C30,1.17,32.84,28,30.68,28.5c-2.38.55-8.63-15-10.69-14.37-2.38.78-7.91-4.27-9.8-3.35C7.83,11.94,17.46,29.92,16,31.27c-2,1.85-16-4-16-1.93S-.11,40.9,1.91,42.76C3.37,44.1,7,48.41,9.37,49.57c1.89.93,9.45-9.45,11.83-8.67,2.06.68,5.37-3.7,7.75-3.15,2.15.49,3.62,3.43,6,3.8,2.2.35,4.42-.48,6.79-.25s4.68-7.06,7-6.94S52.78,47,55.13,47s5,5.55,7.23,5.44,3.25-17.71,5.49-17.93,3.82-1.68,6-2c2.38-.37,7.86,17,10,16.51,2.37-.55,4.42-3.37,6.48-4,2.38-.78,7.61,3.55,9.5,2.62,2.37-1.16,8.22-2.1,9.69-3.44C111.58,42.21,105.56,31.44,105.56,29.34Z"/></clipPath></defs><g class="cls-2"><g id="Layer_1" data-name="Layer 1"><g class="cls-3"><path class="cls-4" d="M112.56,36.34c0-2.09-9,3.51-11,1.65-1.47-1.34,5.5-14.16,3.14-15.32-1.89-.92-5-.92-7.35-1.7-2.06-.68-6.33,6.26-8.71,5.71-2.15-.5-5.45,7.57-7.83,7.19-2.2-.34-2.53-12.77-4.89-13s-4.06-9.8-6.42-9.92S64.48,7,62.13,7s-4.59,13.88-6.85,14-5-3.38-7.2-3.16-6.52-10.38-8.73-10C37,8.17,39.84,35,37.68,35.5c-2.38.55-8.63-15-10.69-14.37-2.38.78-7.91-4.27-9.8-3.35-2.36,1.16,7.27,19.14,5.8,20.49-2,1.85-16-4-16-1.93S6.89,47.9,8.91,49.76c1.46,1.34,5.1,5.65,7.46,6.81,1.89.93,9.45-9.45,11.83-8.67,2.06.68,5.37-3.7,7.75-3.15,2.15.49,3.62,3.43,6,3.8,2.2.35,4.42-.48,6.79-.25s4.68-7.06,7-6.94S59.78,54,62.13,54s5,5.55,7.23,5.44,3.25-17.71,5.49-17.93,3.82-1.68,6-2c2.38-.37,7.86,17,10,16.51,2.37-.55,4.42-3.37,6.48-4,2.38-.78,7.61,3.55,9.5,2.62,2.37-1.16,8.22-2.1,9.69-3.44C118.58,49.21,112.56,38.44,112.56,36.34Z"/></g><g class="cls-5"><rect class="cls-6" x="-0.11" width="0.25" height="52.5"/><rect class="cls-6" x="0.14" width="0.45" height="52.5"/><rect class="cls-7" x="0.59" width="0.45" height="52.5"/><rect class="cls-8" x="1.03" width="0.45" height="52.5"/><rect class="cls-9" x="1.48" width="0.45" height="52.5"/><rect class="cls-10" x="1.93" width="0.45" height="52.5"/><rect class="cls-11" x="2.37" width="0.45" height="52.5"/><rect class="cls-12" x="2.82" width="0.45" height="52.5"/><rect class="cls-13" x="3.27" width="0.45" height="52.5"/><rect class="cls-14" x="3.71" width="0.45" height="52.5"/><rect class="cls-15" x="4.16" width="0.45" height="52.5"/><rect class="cls-16" x="4.61" width="0.45" height="52.5"/><rect class="cls-17" x="5.05" width="0.45" height="52.5"/><rect class="cls-18" x="5.5" width="0.45" height="52.5"/><rect class="cls-19" x="5.95" width="0.45" height="52.5"/><rect class="cls-20" x="6.39" width="0.45" height="52.5"/><rect class="cls-21" x="6.84" width="0.45" height="52.5"/><rect class="cls-22" x="7.29" width="0.45" height="52.5"/><rect class="cls-23" x="7.74" width="0.45" height="52.5"/><rect class="cls-24" x="8.18" width="0.45" height="52.5"/><rect class="cls-25" x="8.63" width="0.45" height="52.5"/><rect class="cls-26" x="9.08" width="0.45" height="52.5"/><rect class="cls-27" x="9.52" width="0.45" height="52.5"/><rect class="cls-28" x="9.97" width="0.45" height="52.5"/><rect class="cls-29" x="10.42" width="0.45" height="52.5"/><rect class="cls-30" x="10.86" width="0.45" height="52.5"/><rect class="cls-31" x="11.31" width="0.45" height="52.5"/><rect class="cls-32" x="11.76" width="0.45" height="52.5"/><rect class="cls-33" x="12.2" width="0.45" height="52.5"/><rect class="cls-34" x="12.65" width="0.45" height="52.5"/><rect class="cls-35" x="13.1" width="0.45" height="52.5"/><rect class="cls-36" x="13.54" width="0.45" height="52.5"/><rect class="cls-37" x="13.99" width="0.45" height="52.5"/><rect class="cls-38" x="14.44" width="0.45" height="52.5"/><rect class="cls-39" x="14.88" width="0.45" height="52.5"/><rect class="cls-40" x="15.33" width="0.45" height="52.5"/><rect class="cls-41" x="15.78" width="0.45" height="52.5"/><rect class="cls-42" x="16.22" width="0.45" height="52.5"/><rect class="cls-43" x="16.67" width="0.45" height="52.5"/><rect class="cls-44" x="17.12" width="0.45" height="52.5"/><rect class="cls-45" x="17.56" width="0.45" height="52.5"/><rect class="cls-46" x="18.01" width="0.45" height="52.5"/><rect class="cls-47" x="18.46" width="0.45" height="52.5"/><rect class="cls-48" x="18.91" width="0.45" height="52.5"/><rect class="cls-49" x="19.35" width="0.45" height="52.5"/><rect class="cls-50" x="19.8" width="0.45" height="52.5"/><rect class="cls-51" x="20.25" width="0.45" height="52.5"/><rect class="cls-52" x="20.69" width="0.45" height="52.5"/><rect class="cls-53" x="21.14" width="0.45" height="52.5"/><rect class="cls-54" x="21.59" width="0.45" height="52.5"/><rect class="cls-55" x="22.03" width="0.45" height="52.5"/><rect class="cls-56" x="22.48" width="0.45" height="52.5"/><rect class="cls-57" x="22.93" width="0.45" height="52.5"/><rect class="cls-58" x="23.37" width="0.45" height="52.5"/><rect class="cls-59" x="23.82" width="0.45" height="52.5"/><rect class="cls-60" x="24.27" width="0.45" height="52.5"/><rect class="cls-61" x="24.71" width="0.45" height="52.5"/><rect class="cls-62" x="25.16" width="0.45" height="52.5"/><rect class="cls-63" x="25.61" width="0.45" height="52.5"/><rect class="cls-64" x="26.05" width="0.45" height="52.5"/><rect class="cls-65" x="26.5" width="0.45" height="52.5"/><rect class="cls-66" x="26.95" width="0.45" height="52.5"/><rect class="cls-67" x="27.39" width="0.45" height="52.5"/><rect class="cls-68" x="27.84" width="0.45" height="52.5"/><rect class="cls-69" x="28.29" width="0.45" height="52.5"/><rect class="cls-70" x="28.73" width="0.45" height="52.5"/><rect class="cls-71" x="29.18" width="0.45" height="52.5"/><rect class="cls-72" x="29.63" width="0.45" height="52.5"/><rect class="cls-73" x="30.07" width="0.45" height="52.5"/><rect class="cls-74" x="30.52" width="0.45" height="52.5"/><rect class="cls-75" x="30.97" width="0.45" height="52.5"/><rect class="cls-76" x="31.42" width="0.45" height="52.5"/><rect class="cls-77" x="31.86" width="0.45" height="52.5"/><rect class="cls-78" x="32.31" width="0.45" height="52.5"/><rect class="cls-79" x="32.76" width="0.45" height="52.5"/><rect class="cls-80" x="33.2" width="0.45" height="52.5"/><rect class="cls-80" x="33.65" width="0.22" height="52.5"/><rect class="cls-81" x="33.87" width="0.22" height="52.5"/><rect class="cls-82" x="34.09" width="0.22" height="52.5"/><rect class="cls-83" x="34.3" width="0.22" height="52.5"/><rect class="cls-84" x="34.52" width="0.22" height="52.5"/><rect class="cls-85" x="34.74" width="0.22" height="52.5"/><rect class="cls-86" x="34.96" width="0.22" height="52.5"/><rect class="cls-87" x="35.18" width="0.22" height="52.5"/><rect class="cls-88" x="35.4" width="0.22" height="52.5"/><rect class="cls-89" x="35.62" width="0.22" height="52.5"/><rect class="cls-90" x="35.83" width="0.22" height="52.5"/><rect class="cls-91" x="36.05" width="0.22" height="52.5"/><rect class="cls-92" x="36.27" width="0.22" height="52.5"/><rect class="cls-93" x="36.49" width="0.22" height="52.5"/><rect class="cls-94" x="36.71" width="0.22" height="52.5"/><rect class="cls-95" x="36.93" width="0.22" height="52.5"/><rect class="cls-96" x="37.15" width="0.22" height="52.5"/><rect class="cls-97" x="37.36" width="0.22" height="52.5"/><rect class="cls-98" x="37.58" width="0.22" height="52.5"/><rect class="cls-99" x="37.8" width="0.22" height="52.5"/><rect class="cls-100" x="38.02" width="0.22" height="52.5"/><rect class="cls-101" x="38.24" width="0.22" height="52.5"/><rect class="cls-102" x="38.46" width="0.22" height="52.5"/><rect class="cls-103" x="38.67" width="0.22" height="52.5"/><rect class="cls-104" x="38.89" width="0.22" height="52.5"/><rect class="cls-105" x="39.11" width="0.22" height="52.5"/><rect class="cls-106" x="39.33" width="0.22" height="52.5"/><rect class="cls-107" x="39.55" width="0.22" height="52.5"/><rect class="cls-108" x="39.77" width="0.22" height="52.5"/><rect class="cls-109" x="39.99" width="0.22" height="52.5"/><rect class="cls-110" x="40.2" width="0.22" height="52.5"/><rect class="cls-111" x="40.42" width="0.22" height="52.5"/><rect class="cls-112" x="40.64" width="0.22" height="52.5"/><rect class="cls-113" x="40.86" width="0.22" height="52.5"/><rect class="cls-114" x="41.08" width="0.22" height="52.5"/><rect class="cls-115" x="41.3" width="0.22" height="52.5"/><rect class="cls-116" x="41.52" width="0.22" height="52.5"/><rect class="cls-117" x="41.73" width="0.22" height="52.5"/><rect class="cls-118" x="41.95" width="0.22" height="52.5"/><rect class="cls-119" x="42.17" width="0.22" height="52.5"/><rect class="cls-120" x="42.39" width="0.22" height="52.5"/><rect class="cls-121" x="42.61" width="0.22" height="52.5"/><rect class="cls-122" x="42.83" width="0.22" height="52.5"/><rect class="cls-123" x="43.04" width="0.22" height="52.5"/><rect class="cls-124" x="43.26" width="0.22" height="52.5"/><rect class="cls-125" x="43.48" width="0.22" height="52.5"/><rect class="cls-126" x="43.7" width="0.22" height="52.5"/><rect class="cls-127" x="43.92" width="0.22" height="52.5"/><rect class="cls-128" x="44.14" width="0.22" height="52.5"/><rect class="cls-129" x="44.36" width="0.22" height="52.5"/><rect class="cls-130" x="44.57" width="0.22" height="52.5"/><rect class="cls-131" x="44.79" width="0.22" height="52.5"/><rect class="cls-132" x="45.01" width="0.22" height="52.5"/><rect class="cls-133" x="45.23" width="0.22" height="52.5"/><rect class="cls-134" x="45.45" width="0.22" height="52.5"/><rect class="cls-135" x="45.67" width="0.22" height="52.5"/><rect class="cls-136" x="45.89" width="0.22" height="52.5"/><rect class="cls-137" x="46.1" width="0.22" height="52.5"/><rect class="cls-138" x="46.32" width="0.22" height="52.5"/><rect class="cls-139" x="46.54" width="0.22" height="52.5"/><rect class="cls-140" x="46.76" width="0.22" height="52.5"/><rect class="cls-141" x="46.98" width="0.22" height="52.5"/><rect class="cls-142" x="47.2" width="0.22" height="52.5"/><rect class="cls-143" x="47.41" width="0.22" height="52.5"/><rect class="cls-144" x="47.63" width="0.22" height="52.5"/><rect class="cls-145" x="47.85" width="0.22" height="52.5"/><rect class="cls-146" x="48.07" width="0.22" height="52.5"/><rect class="cls-147" x="48.29" width="0.22" height="52.5"/><rect class="cls-148" x="48.51" width="0.22" height="52.5"/><rect class="cls-149" x="48.73" width="0.22" height="52.5"/><rect class="cls-150" x="48.94" width="0.22" height="52.5"/><rect class="cls-151" x="49.16" width="0.22" height="52.5"/><rect class="cls-152" x="49.38" width="0.22" height="52.5"/><rect class="cls-153" x="49.6" width="0.22" height="52.5"/><rect class="cls-154" x="49.82" width="0.22" height="52.5"/><rect class="cls-155" x="50.04" width="0.22" height="52.5"/><rect class="cls-156" x="50.26" width="0.22" height="52.5"/><rect class="cls-157" x="50.47" width="0.22" height="52.5"/><rect class="cls-158" x="50.69" width="0.22" height="52.5"/><rect class="cls-159" x="50.91" width="0.22" height="52.5"/><rect class="cls-160" x="51.13" width="0.22" height="52.5"/><rect class="cls-161" x="51.35" width="0.22" height="52.5"/><rect class="cls-161" x="51.57" width="0.24" height="52.5"/><rect class="cls-162" x="51.81" width="0.24" height="52.5"/><rect class="cls-163" x="52.05" width="0.24" height="52.5"/><rect class="cls-164" x="52.3" width="0.24" height="52.5"/><rect class="cls-165" x="52.54" width="0.24" height="52.5"/><rect class="cls-166" x="52.79" width="0.24" height="52.5"/><rect class="cls-167" x="53.03" width="0.24" height="52.5"/><rect class="cls-168" x="53.27" width="0.24" height="52.5"/><rect class="cls-169" x="53.52" width="0.24" height="52.5"/><rect class="cls-170" x="53.76" width="0.24" height="52.5"/><rect class="cls-171" x="54.01" width="0.24" height="52.5"/><rect class="cls-172" x="54.25" width="0.24" height="52.5"/><rect class="cls-173" x="54.49" width="0.24" height="52.5"/><rect class="cls-174" x="54.74" width="0.24" height="52.5"/><rect class="cls-175" x="54.98" width="0.24" height="52.5"/><rect class="cls-176" x="55.22" width="0.24" height="52.5"/><rect class="cls-177" x="55.47" width="0.24" height="52.5"/><rect class="cls-178" x="55.71" width="0.24" height="52.5"/><rect class="cls-179" x="55.96" width="0.24" height="52.5"/><rect class="cls-180" x="56.2" width="0.24" height="52.5"/><rect class="cls-181" x="56.44" width="0.24" height="52.5"/><rect class="cls-182" x="56.69" width="0.24" height="52.5"/><rect class="cls-183" x="56.93" width="0.24" height="52.5"/><rect class="cls-184" x="57.18" width="0.24" height="52.5"/><rect class="cls-185" x="57.42" width="0.24" height="52.5"/><rect class="cls-186" x="57.66" width="0.24" height="52.5"/><rect class="cls-187" x="57.91" width="0.24" height="52.5"/><rect class="cls-188" x="58.15" width="0.24" height="52.5"/><rect class="cls-189" x="58.4" width="0.24" height="52.5"/><rect class="cls-190" x="58.64" width="0.24" height="52.5"/><rect class="cls-191" x="58.88" width="0.24" height="52.5"/><rect class="cls-192" x="59.13" width="0.24" height="52.5"/><rect class="cls-193" x="59.37" width="0.24" height="52.5"/><rect class="cls-194" x="59.61" width="0.24" height="52.5"/><rect class="cls-195" x="59.86" width="0.24" height="52.5"/><rect class="cls-196" x="60.1" width="0.24" height="52.5"/><rect class="cls-197" x="60.35" width="0.24" height="52.5"/><rect class="cls-198" x="60.59" width="0.24" height="52.5"/><rect class="cls-199" x="60.83" width="0.24" height="52.5"/><rect class="cls-200" x="61.08" width="0.24" height="52.5"/><rect class="cls-201" x="61.32" width="0.24" height="52.5"/><rect class="cls-202" x="61.57" width="0.24" height="52.5"/><rect class="cls-203" x="61.81" width="0.24" height="52.5"/><rect class="cls-204" x="62.05" width="0.24" height="52.5"/><rect class="cls-205" x="62.3" width="0.24" height="52.5"/><rect class="cls-206" x="62.54" width="0.24" height="52.5"/><rect class="cls-207" x="62.78" width="0.24" height="52.5"/><rect class="cls-208" x="63.03" width="0.24" height="52.5"/><rect class="cls-209" x="63.27" width="0.24" height="52.5"/><rect class="cls-210" x="63.52" width="0.24" height="52.5"/><rect class="cls-211" x="63.76" width="0.24" height="52.5"/><rect class="cls-212" x="64" width="0.24" height="52.5"/><rect class="cls-213" x="64.25" width="0.24" height="52.5"/><rect class="cls-214" x="64.49" width="0.24" height="52.5"/><rect class="cls-215" x="64.74" width="0.24" height="52.5"/><rect class="cls-216" x="64.98" width="0.24" height="52.5"/><rect class="cls-217" x="65.22" width="0.24" height="52.5"/><rect class="cls-218" x="65.47" width="0.24" height="52.5"/><rect class="cls-219" x="65.71" width="0.24" height="52.5"/><rect class="cls-220" x="65.96" width="0.24" height="52.5"/><rect class="cls-221" x="66.2" width="0.24" height="52.5"/><rect class="cls-222" x="66.44" width="0.24" height="52.5"/><rect class="cls-223" x="66.69" width="0.24" height="52.5"/><rect class="cls-224" x="66.93" width="0.24" height="52.5"/><rect class="cls-225" x="67.17" width="0.24" height="52.5"/><rect class="cls-226" x="67.42" width="0.24" height="52.5"/><rect class="cls-227" x="67.66" width="0.24" height="52.5"/><rect class="cls-228" x="67.91" width="0.24" height="52.5"/><rect class="cls-229" x="68.15" width="0.24" height="52.5"/><rect class="cls-230" x="68.39" width="0.24" height="52.5"/><rect class="cls-231" x="68.64" width="0.24" height="52.5"/><rect class="cls-232" x="68.88" width="0.24" height="52.5"/><rect class="cls-233" x="69.13" width="0.24" height="52.5"/><rect class="cls-234" x="69.37" width="0.24" height="52.5"/><rect class="cls-235" x="69.61" width="0.24" height="52.5"/><rect class="cls-236" x="69.86" width="0.24" height="52.5"/><rect class="cls-237" x="70.1" width="0.24" height="52.5"/><rect class="cls-238" x="70.35" width="0.24" height="52.5"/><rect class="cls-239" x="70.59" width="0.24" height="52.5"/><rect class="cls-240" x="70.83" width="0.24" height="52.5"/><rect class="cls-241" x="71.08" width="0.24" height="52.5"/><rect class="cls-242" x="71.32" width="0.24" height="52.5"/><rect class="cls-243" x="71.56" width="0.24" height="52.5"/><rect class="cls-244" x="71.81" width="0.24" height="52.5"/><rect class="cls-245" x="72.05" width="0.24" height="52.5"/><rect class="cls-246" x="72.3" width="0.24" height="52.5"/><rect class="cls-247" x="72.54" width="0.24" height="52.5"/><rect class="cls-248" x="72.78" width="0.24" height="52.5"/><rect class="cls-249" x="73.03" width="0.24" height="52.5"/><rect class="cls-250" x="73.27" width="0.24" height="52.5"/><rect class="cls-251" x="73.52" width="0.24" height="52.5"/><rect class="cls-252" x="73.76" width="0.24" height="52.5"/><rect class="cls-253" x="74" width="0.24" height="52.5"/><rect class="cls-254" x="74.25" width="0.24" height="52.5"/><rect class="cls-255" x="74.49" width="0.24" height="52.5"/><rect class="cls-256" x="74.73" width="0.24" height="52.5"/><rect class="cls-257" x="74.98" width="0.24" height="52.5"/><rect class="cls-258" x="75.22" width="0.24" height="52.5"/><rect class="cls-259" x="75.47" width="0.24" height="52.5"/><rect class="cls-260" x="75.71" width="0.24" height="52.5"/><rect class="cls-261" x="75.95" width="0.24" height="52.5"/><rect class="cls-262" x="76.2" width="0.24" height="52.5"/><rect class="cls-263" x="76.44" width="0.24" height="52.5"/><rect class="cls-264" x="76.69" width="0.24" height="52.5"/><rect class="cls-265" x="76.93" width="0.24" height="52.5"/><rect class="cls-266" x="77.17" width="0.24" height="52.5"/><rect class="cls-267" x="77.42" width="0.24" height="52.5"/><rect class="cls-268" x="77.66" width="0.24" height="52.5"/><rect class="cls-269" x="77.91" width="0.24" height="52.5"/><rect class="cls-270" x="78.15" width="0.24" height="52.5"/><rect class="cls-271" x="78.39" width="0.24" height="52.5"/><rect class="cls-272" x="78.64" width="0.24" height="52.5"/><rect class="cls-273" x="78.88" width="0.24" height="52.5"/><rect class="cls-274" x="79.12" width="0.24" height="52.5"/><rect class="cls-275" x="79.37" width="0.24" height="52.5"/><rect class="cls-276" x="79.61" width="0.24" height="52.5"/><rect class="cls-277" x="79.86" width="0.24" height="52.5"/><rect class="cls-278" x="80.1" width="0.24" height="52.5"/><rect class="cls-279" x="80.34" width="0.24" height="52.5"/><rect class="cls-280" x="80.59" width="0.24" height="52.5"/><rect class="cls-281" x="80.83" width="0.24" height="52.5"/><rect class="cls-282" x="81.08" width="0.24" height="52.5"/><rect class="cls-283" x="81.32" width="0.24" height="52.5"/><rect class="cls-284" x="81.56" width="0.24" height="52.5"/><rect class="cls-285" x="81.81" width="0.24" height="52.5"/><rect class="cls-286" x="82.05" width="0.24" height="52.5"/><rect class="cls-287" x="82.3" width="0.24" height="52.5"/><rect class="cls-288" x="82.54" width="0.24" height="52.5"/><rect class="cls-289" x="82.78" width="0.24" height="52.5"/><rect class="cls-290" x="83.03" width="0.24" height="52.5"/><rect class="cls-291" x="83.27" width="0.24" height="52.5"/><rect class="cls-292" x="83.51" width="0.24" height="52.5"/><rect class="cls-293" x="83.76" width="0.24" height="52.5"/><rect class="cls-294" x="84" width="0.24" height="52.5"/><rect class="cls-295" x="84.25" width="0.24" height="52.5"/><rect class="cls-296" x="84.49" width="0.24" height="52.5"/><rect class="cls-297" x="84.73" width="0.24" height="52.5"/><rect class="cls-298" x="84.98" width="0.24" height="52.5"/><rect class="cls-299" x="85.22" width="0.24" height="52.5"/><rect class="cls-300" x="85.47" width="0.24" height="52.5"/><rect class="cls-301" x="85.71" width="0.24" height="52.5"/><rect class="cls-302" x="85.95" width="0.24" height="52.5"/><rect class="cls-303" x="86.2" width="0.24" height="52.5"/><rect class="cls-304" x="86.44" width="0.24" height="52.5"/><rect class="cls-305" x="86.68" width="0.24" height="52.5"/><rect class="cls-306" x="86.93" width="0.24" height="52.5"/><rect class="cls-307" x="87.17" width="0.24" height="52.5"/><rect class="cls-308" x="87.42" width="0.24" height="52.5"/><rect class="cls-308" x="87.66" width="3.85" height="52.5"/><rect class="cls-309" x="91.51" width="3.85" height="52.5"/><rect class="cls-310" x="95.36" width="3.85" height="52.5"/><rect class="cls-311" x="99.2" width="3.85" height="52.5"/><rect class="cls-312" x="103.05" width="3.85" height="52.5"/><rect class="cls-312" x="106.9" width="4.69" height="52.5"/></g><g class="cls-313"><path d="M50.3,30.32c0,.07-.06.1-.18.1H49.9l-1.52-.05-1.53.05h-.18q-.24,0-.24-.12c0-.1.11-.14.33-.14q1.05,0,1.05-.21a.3.3,0,0,0,0-.1l-.1-.32-.06-.16c-.07-.25-.25-.8-.53-1.65H44.54a13,13,0,0,0-.72,2.21.18.18,0,0,0,.14.2,5.43,5.43,0,0,0,.6.05c.23,0,.35.05.35.12s-.1.12-.31.12c-.37,0-.8,0-1.29-.05h-.37a2.21,2.21,0,0,0-.37,0,.5.5,0,0,1-.16,0c-.11,0-.16,0-.16-.11s.12-.11.37-.12a1.05,1.05,0,0,0,.55-.11.69.69,0,0,0,.26-.39Q45,25.25,46,22.57a1.35,1.35,0,0,1,.11-.32l0-.22c0-.08.06-.13.1-.13s0,0,.06.07c.1.32.34,1,.7,2,.29.78,1,2.72,2.15,5.84a.59.59,0,0,0,.25.35,1.73,1.73,0,0,0,.62.09C50.19,30.21,50.3,30.25,50.3,30.32ZM47,27.45l-.64-1.79L45.81,24q-.5,1.32-1.2,3.45Z"/><path d="M58.72,30.32c0,.07-.08.1-.25.1h-3c-.17,0-.25,0-.25-.11s.12-.12.35-.12c.41,0,.65,0,.74-.13a2.43,2.43,0,0,0,.06-.8V23l-.14.42c-.32,1-.79,2.42-1.4,4.37l-.56,1.91c-.11.37-.19.56-.24.56s-.11-.1-.18-.29c-.23-.73-.88-2.54-2-5.45l-.47-1.28v4.52q0,2.21,0,2.22c.06.11.25.16.58.16s.39,0,.39.12-.08.13-.25.13l-.29,0-.3,0-1.38.05c-.14,0-.21,0-.21-.11s.23-.12.68-.13c.19,0,.31,0,.34-.09a2.29,2.29,0,0,0,0-.63V23.7a8.79,8.79,0,0,0,0-1.08.33.33,0,0,0-.2-.23,2.84,2.84,0,0,0-.67-.09c-.13,0-.2-.05-.2-.11s.12-.13.36-.13h1.84l.7,1.89c.18.48.69,1.88,1.53,4.21.16-.52.32-1,.48-1.54l1.28-4q.12-.34.21-.57h1.77a1.71,1.71,0,0,1,.45,0,.13.13,0,0,1,.06.11c0,.08-.07.12-.2.12a2.25,2.25,0,0,0-.46,0,.61.61,0,0,0-.4.19A7.22,7.22,0,0,0,57.53,24v5.59a1,1,0,0,0,.1.57,1.68,1.68,0,0,0,.78.11h.07C58.64,30.22,58.72,30.25,58.72,30.32Z"/><path d="M65.47,29.45c0,.21,0,.55,0,1H65.3l-.35,0a5.72,5.72,0,0,0-.62,0l-5,0c-.14,0-.21,0-.21-.11s.11-.09.33-.11a1.11,1.11,0,0,0,.54-.1q.09-.07.09-.45V22.89c0-.3,0-.47-.09-.52a1.47,1.47,0,0,0-.64-.07c-.15,0-.23-.05-.23-.13s0-.11.15-.11h.1c.27,0,.79,0,1.58,0h.42a5,5,0,0,1,.51,0H62c.15,0,.22,0,.22.12a.08.08,0,0,1-.07.09l-.41,0c-.23,0-.37,0-.41.11a1.51,1.51,0,0,0-.07.63v7.08h.9a9.05,9.05,0,0,0,2-.14,1.16,1.16,0,0,0,.78-.54,2.53,2.53,0,0,0,.24-1.07c0-.1,0-.15.14-.15s.14.06.14.18v1Z"/></g></g></g></svg>